<svg width="131" height="77" viewBox="0 0 131 77" fill="none" xmlns="http://www.w3.org/2000/svg">
<g filter="url(#filter0_f_101:9)">
<path d="M37.8622 2.52078C30.5536 5.22136 27.0149 9.8148 28.1504 14.1123C50.5025 31.5996 72.7121 48.1379 75.7695 47.9468C75.7695 47.9468 79.1735 48.0976 80.782 47.6335C82.0392 47.2708 84.2281 45.7538 84.2281 45.7538L91.4336 51.0796L98.9524 56.7187L109.604 65.1774C109.604 65.1774 110.515 66.9478 111.17 67.6836C112.06 68.6826 113.162 69.7214 114.214 70.5468C115.562 71.604 116.839 72.5677 118.376 73.3227C120.218 74.2272 122.303 74.826 124.328 75.1568C125.878 75.4099 127.881 76.275 129.028 75.2024C129.561 74.703 129.412 73.6313 129.028 73.0094C128.782 72.6122 128.226 72.5035 127.774 72.3829C126.056 71.9236 125.224 72.3086 122.449 72.4264C121.607 72.4622 120.516 71.8995 119.81 71.441C118.18 70.383 116.309 69.3214 115.2 67.7272C114.331 66.4793 114.303 62.9843 114.303 62.9843L107.411 54.839L85.4812 36.3553L37.8622 2.52078Z" fill="black" stroke="black" stroke-width="0.118406"/>
<path d="M7.78719 74.2626C11.4206 74.2626 14.3661 71.3171 14.3661 67.6836C14.3661 64.0502 11.4206 61.1047 7.78719 61.1047C4.15374 61.1047 1.20825 64.0502 1.20825 67.6836C1.20825 71.3171 4.15374 74.2626 7.78719 74.2626Z" fill="black"/>
<path d="M115.265 62.9844C117.353 62.9844 119.046 61.2915 119.046 59.2032C119.046 57.1149 117.353 55.422 115.265 55.422C113.177 55.422 111.484 57.1149 111.484 59.2032C111.484 61.2915 113.177 62.9844 115.265 62.9844Z" fill="black"/>
<path d="M8.10041 60.7914C38.3237 64.2982 73.8462 62.8627 114.93 55.5092L116.496 62.6711C78.3298 75.4517 41.8895 77.3005 6.2207 74.2626L8.10041 60.7914Z" fill="black" stroke="black" stroke-width="0.313283"/>
<path d="M108.508 62.6711C109.632 62.6711 110.544 61.7594 110.544 60.6348C110.544 59.5101 109.632 58.5984 108.508 58.5984C107.383 58.5984 106.471 59.5101 106.471 60.6348C106.471 61.7594 107.383 62.6711 108.508 62.6711Z" fill="black"/>
<g filter="url(#filter1_f_101:9)">
<path d="M39.4822 3.15701L84.807 35.9907L94.7999 45.2698L108.718 56.6902L86.5914 39.2027L37.6978 3.15701H39.4822Z" fill="black"/>
<path d="M39.4822 3.15701L84.807 35.9907L94.7999 45.2698L108.718 56.6902L86.5914 39.2027L37.6978 3.15701H39.4822Z" stroke="black" stroke-width="0.313283"/>
</g>
<g filter="url(#filter2_f_101:9)">
<path d="M39.4822 3.15701L84.807 35.9907L94.7999 45.2698L108.718 56.6902L86.5914 38.8458L37.6978 3.15701H39.4822Z" fill="black"/>
</g>
<path d="M11.4341 70.1658C12.5587 70.1658 13.4704 69.2541 13.4704 68.1294C13.4704 67.0048 12.5587 66.0931 11.4341 66.0931C10.3094 66.0931 9.39771 67.0048 9.39771 68.1294C9.39771 69.2541 10.3094 70.1658 11.4341 70.1658Z" fill="black"/>
<g filter="url(#filter3_f_101:9)">
<path d="M34.7466 7.72708L39.243 6.62976L81.5843 37.7203L83.8326 43.9384L76.3385 42.4754L37.3695 13.5794L34.7466 7.72708Z" fill="black"/>
</g>
<g filter="url(#filter4_f_101:9)">
<path d="M86.2345 39.5596C86.2345 39.5596 81.3592 44.1838 78.383 45.6267C77.0589 46.2687 74.1003 46.6974 74.1003 46.6974C74.1003 46.6974 76.0123 47.2286 76.9555 47.0543C80.9328 46.319 87.6621 41.3441 87.6621 41.3441L86.2345 39.5596Z" fill="black"/>
</g>
<path d="M88.019 40.8087L82.3088 45.6267H84.0933L100.689 57.8501L107.469 56.3334L88.019 40.8087Z" fill="black"/>
<g filter="url(#filter5_f_101:9)">
<path d="M108.508 58.5984C108.24 58.5984 107.976 58.6511 107.729 58.7534C107.481 58.8557 107.257 59.0057 107.068 59.1948C106.879 59.3839 106.729 59.6084 106.626 59.8554C106.524 60.1025 106.471 60.3673 106.471 60.6347C106.472 60.977 106.559 61.3136 106.723 61.6134C106.888 61.9133 107.126 62.1668 107.415 62.3504C107.208 62.0247 107.098 61.647 107.098 61.2613C107.098 60.9939 107.151 60.7291 107.253 60.482C107.355 60.235 107.505 60.0105 107.694 59.8214C107.884 59.6323 108.108 59.4823 108.355 59.38C108.602 59.2776 108.867 59.225 109.134 59.225C109.522 59.2257 109.901 59.3369 110.227 59.5456C110.044 59.2556 109.79 59.0167 109.489 58.8511C109.189 58.6855 108.851 58.5986 108.508 58.5984V58.5984Z" fill="black"/>
</g>
</g>
<path d="M37.3915 2.04993C30.0829 4.7505 26.5442 9.34395 27.6797 13.6414C50.0318 31.1287 72.2414 47.667 75.2988 47.476C75.2988 47.476 78.7028 47.6267 80.3113 47.1627C81.5685 46.8 83.7574 45.283 83.7574 45.283L90.9629 50.6088L98.4817 56.2479L109.133 64.7065C109.133 64.7065 110.045 66.4769 110.7 67.2128C111.589 68.2117 112.691 69.2505 113.743 70.0759C115.091 71.1331 116.368 72.0969 117.905 72.8519C119.747 73.7563 121.833 74.3551 123.858 74.686C125.407 74.9391 127.41 75.8041 128.557 74.7316C129.091 74.2322 128.941 73.1604 128.557 72.5386C128.311 72.1413 127.755 72.0326 127.304 71.912C125.586 71.4528 124.753 71.8378 121.978 71.9556C121.137 71.9913 120.045 71.4286 119.339 70.9701C117.71 69.9122 115.839 68.8505 114.729 67.2563C113.86 66.0085 113.833 62.5135 113.833 62.5135L106.94 54.3681L85.0105 35.8844L37.3915 2.04993Z" fill="#CCCCCC" stroke="black" stroke-width="0.118406"/>
<path d="M7.31624 73.7917C10.9497 73.7917 13.8952 70.8462 13.8952 67.2128C13.8952 63.5793 10.9497 60.6338 7.31624 60.6338C3.68279 60.6338 0.737305 63.5793 0.737305 67.2128C0.737305 70.8462 3.68279 73.7917 7.31624 73.7917Z" fill="black"/>
<path d="M114.794 62.5135C116.882 62.5135 118.575 60.8206 118.575 58.7323C118.575 56.644 116.882 54.9511 114.794 54.9511C112.706 54.9511 111.013 56.644 111.013 58.7323C111.013 60.8206 112.706 62.5135 114.794 62.5135Z" fill="black"/>
<path d="M7.62946 60.669C37.8528 64.1758 73.3753 62.3919 114.459 55.0383L116.025 62.2002C77.8589 74.9809 41.4185 76.4812 5.74976 73.4432L7.62946 60.669Z" fill="black" stroke="black" stroke-width="0.313283"/>
<path d="M108.037 62.2002C109.161 62.2002 110.073 61.2885 110.073 60.1639C110.073 59.0393 109.161 58.1276 108.037 58.1276C106.912 58.1276 106 59.0393 106 60.1639C106 61.2885 106.912 62.2002 108.037 62.2002Z" fill="#F2F2F2"/>
<g filter="url(#filter6_f_101:9)">
<path d="M39.0112 2.68616L84.336 35.5199L94.3289 44.799L108.248 56.2194L86.1205 38.7319L37.2268 2.68616H39.0112Z" fill="#333333"/>
<path d="M39.0112 2.68616L84.336 35.5199L94.3289 44.799L108.248 56.2194L86.1205 38.7319L37.2268 2.68616H39.0112Z" stroke="black" stroke-width="0.313283"/>
</g>
<g filter="url(#filter7_f_101:9)">
<path d="M39.0112 2.68616L84.336 35.5199L94.3289 44.799L108.248 56.2194L86.1205 38.375L37.2268 2.68616H39.0112Z" fill="white"/>
</g>
<path d="M10.9631 69.6949C12.0877 69.6949 12.9994 68.7832 12.9994 67.6586C12.9994 66.5339 12.0877 65.6222 10.9631 65.6222C9.83847 65.6222 8.92676 66.5339 8.92676 67.6586C8.92676 68.7832 9.83847 69.6949 10.9631 69.6949Z" fill="white"/>
<g filter="url(#filter8_f_101:9)">
<path d="M34.2756 7.25619L38.7721 6.15887L81.1134 37.2494L83.3616 43.4676L75.8676 42.0045L36.8985 13.1085L34.2756 7.25619Z" fill="white"/>
</g>
<g filter="url(#filter9_f_101:9)">
<path d="M85.7636 39.0888C85.7636 39.0888 80.8882 43.7129 77.9121 45.1559C76.588 45.7978 73.6294 46.2265 73.6294 46.2265C73.6294 46.2265 75.5414 46.7578 76.4845 46.5834C80.4618 45.8481 87.1911 40.8732 87.1911 40.8732L85.7636 39.0888Z" fill="white"/>
</g>
<path d="M87.5481 40.3379L81.8379 45.1559H83.6223L100.218 57.3793L106.998 55.8625L87.5481 40.3379Z" fill="#B3B3B3"/>
<g filter="url(#filter10_f_101:9)">
<path d="M108.037 58.1275C107.769 58.1275 107.505 58.1802 107.258 58.2825C107.01 58.3849 106.786 58.5349 106.597 58.724C106.408 58.9131 106.258 59.1375 106.155 59.3846C106.053 59.6317 106 59.8965 106 60.1639C106.001 60.5061 106.088 60.8427 106.253 61.1426C106.417 61.4424 106.655 61.6959 106.944 61.8796C106.737 61.5539 106.627 61.1762 106.627 60.7904C106.627 60.523 106.68 60.2582 106.782 60.0112C106.884 59.7641 107.034 59.5396 107.223 59.3505C107.413 59.1614 107.637 59.0114 107.884 58.9091C108.131 58.8068 108.396 58.7541 108.663 58.7541C109.051 58.7549 109.43 58.8661 109.756 59.0747C109.573 58.7847 109.319 58.5459 109.018 58.3803C108.718 58.2147 108.38 58.1277 108.037 58.1275V58.1275Z" fill="white"/>
</g>
<defs>
<filter id="filter0_f_101:9" x="0.201394" y="1.44755" width="130.239" height="75.3449" filterUnits="userSpaceOnUse" color-interpolation-filters="sRGB">
<feFlood flood-opacity="0" result="BackgroundImageFix"/>
<feBlend mode="normal" in="SourceGraphic" in2="BackgroundImageFix" result="shape"/>
<feGaussianBlur stdDeviation="0.503429" result="effect1_foregroundBlur_101:9"/>
</filter>
<filter id="filter1_f_101:9" x="36.5877" y="2.36689" width="72.8636" height="55.0797" filterUnits="userSpaceOnUse" color-interpolation-filters="sRGB">
<feFlood flood-opacity="0" result="BackgroundImageFix"/>
<feBlend mode="normal" in="SourceGraphic" in2="BackgroundImageFix" result="shape"/>
<feGaussianBlur stdDeviation="0.316738" result="effect1_foregroundBlur_101:9"/>
</filter>
<filter id="filter2_f_101:9" x="37.075" y="2.53424" width="72.2663" height="54.7788" filterUnits="userSpaceOnUse" color-interpolation-filters="sRGB">
<feFlood flood-opacity="0" result="BackgroundImageFix"/>
<feBlend mode="normal" in="SourceGraphic" in2="BackgroundImageFix" result="shape"/>
<feGaussianBlur stdDeviation="0.311385" result="effect1_foregroundBlur_101:9"/>
</filter>
<filter id="filter3_f_101:9" x="28.7085" y="0.591638" width="61.1622" height="49.3849" filterUnits="userSpaceOnUse" color-interpolation-filters="sRGB">
<feFlood flood-opacity="0" result="BackgroundImageFix"/>
<feBlend mode="normal" in="SourceGraphic" in2="BackgroundImageFix" result="shape"/>
<feGaussianBlur stdDeviation="3.01906" result="effect1_foregroundBlur_101:9"/>
</filter>
<filter id="filter4_f_101:9" x="73.784" y="39.2432" width="14.1945" height="8.16253" filterUnits="userSpaceOnUse" color-interpolation-filters="sRGB">
<feFlood flood-opacity="0" result="BackgroundImageFix"/>
<feBlend mode="normal" in="SourceGraphic" in2="BackgroundImageFix" result="shape"/>
<feGaussianBlur stdDeviation="0.158187" result="effect1_foregroundBlur_101:9"/>
</filter>
<filter id="filter5_f_101:9" x="106.284" y="58.4107" width="4.131" height="4.12745" filterUnits="userSpaceOnUse" color-interpolation-filters="sRGB">
<feFlood flood-opacity="0" result="BackgroundImageFix"/>
<feBlend mode="normal" in="SourceGraphic" in2="BackgroundImageFix" result="shape"/>
<feGaussianBlur stdDeviation="0.0938472" result="effect1_foregroundBlur_101:9"/>
</filter>
<filter id="filter6_f_101:9" x="36.1168" y="1.89603" width="72.8636" height="55.0797" filterUnits="userSpaceOnUse" color-interpolation-filters="sRGB">
<feFlood flood-opacity="0" result="BackgroundImageFix"/>
<feBlend mode="normal" in="SourceGraphic" in2="BackgroundImageFix" result="shape"/>
<feGaussianBlur stdDeviation="0.316738" result="effect1_foregroundBlur_101:9"/>
</filter>
<filter id="filter7_f_101:9" x="36.604" y="2.06339" width="72.2663" height="54.7788" filterUnits="userSpaceOnUse" color-interpolation-filters="sRGB">
<feFlood flood-opacity="0" result="BackgroundImageFix"/>
<feBlend mode="normal" in="SourceGraphic" in2="BackgroundImageFix" result="shape"/>
<feGaussianBlur stdDeviation="0.311385" result="effect1_foregroundBlur_101:9"/>
</filter>
<filter id="filter8_f_101:9" x="28.2375" y="0.120751" width="61.1622" height="49.3849" filterUnits="userSpaceOnUse" color-interpolation-filters="sRGB">
<feFlood flood-opacity="0" result="BackgroundImageFix"/>
<feBlend mode="normal" in="SourceGraphic" in2="BackgroundImageFix" result="shape"/>
<feGaussianBlur stdDeviation="3.01906" result="effect1_foregroundBlur_101:9"/>
</filter>
<filter id="filter9_f_101:9" x="73.313" y="38.7724" width="14.1945" height="8.16253" filterUnits="userSpaceOnUse" color-interpolation-filters="sRGB">
<feFlood flood-opacity="0" result="BackgroundImageFix"/>
<feBlend mode="normal" in="SourceGraphic" in2="BackgroundImageFix" result="shape"/>
<feGaussianBlur stdDeviation="0.158187" result="effect1_foregroundBlur_101:9"/>
</filter>
<filter id="filter10_f_101:9" x="105.813" y="57.9398" width="4.131" height="4.12745" filterUnits="userSpaceOnUse" color-interpolation-filters="sRGB">
<feFlood flood-opacity="0" result="BackgroundImageFix"/>
<feBlend mode="normal" in="SourceGraphic" in2="BackgroundImageFix" result="shape"/>
<feGaussianBlur stdDeviation="0.0938472" result="effect1_foregroundBlur_101:9"/>
</filter>
</defs>
</svg>
